<svg xmlns="http://www.w3.org/2000/svg" version="1.1" xmlns:xlink="http://www.w3.org/1999/xlink" xmlns:svgjs="http://svgjs.dev/svgjs" width="1500" height="1500" viewBox="0 0 1500 1500"><rect width="1500" height="1500" fill="#ffffff"></rect><g transform="matrix(0.6666666666666666,0,0,0.6666666666666666,250.97881758304533,231.75330634278015)"><svg viewBox="0 0 238 247" data-background-color="#ffffff" preserveAspectRatio="xMidYMid meet" height="1556" width="1500" xmlns="http://www.w3.org/2000/svg" xmlns:xlink="http://www.w3.org/1999/xlink"><g id="tight-bounds" transform="matrix(1,0,0,1,-0.2329585847647877,-0.09999999999999432)"><svg viewBox="0 0 238.4659171695296 247.2" height="247.2" width="238.4659171695296"><g><svg viewBox="0 0 395.52 410.0063655238907" height="247.2" width="238.4659171695296"><g transform="matrix(1,0,0,1,0,284.27700828733623)"><svg viewBox="0 0 395.52 125.72935723655443" height="125.72935723655443" width="395.52"><g id="textblocktransform"><svg viewBox="0 0 395.52 125.72935723655443" height="125.72935723655443" width="395.52" id="textblock"><g><svg viewBox="0 0 395.52 125.72935723655443" height="125.72935723655443" width="395.52"><g transform="matrix(1,0,0,1,0,0)"><svg width="395.52" viewBox="4 -35.5 111.66 35.5" height="125.72935723655443" data-palette-color="#0cb60e"><path d="M23.71 0L4 0 4-35.01 23.71-35.01 23.71-32.01 7.15-32.01 7.15-18.99 20.56-18.99 20.56-15.99 7.15-15.99 7.15-3 23.71-3 23.71 0ZM45.16 0L42.84-8.15 31.76-8.15 29.47 0 26.19 0 36.45-35.01 38.11-35.01 48.41 0 45.16 0ZM37.2-27.29L32.61-11.16 42.01-11.16 37.4-27.29 37.3-28.59 37.2-27.29ZM68.26-32.01L59.91-32.01 59.91 0 56.76 0 56.76-32.01 48.41-32.01 48.41-35.01 68.26-35.01 68.26-32.01ZM81.95-32.5L80.75-32.5Q79.58-32.5 78.57-32.06 77.56-31.62 76.8-30.86 76.04-30.1 75.6-29.09 75.16-28.08 75.16-26.9L75.16-26.9 75.16-25.49 72.01-26 72.01-26.9Q72.01-28.69 72.69-30.25 73.36-31.81 74.53-32.98 75.7-34.16 77.26-34.83 78.83-35.5 80.61-35.5L80.61-35.5 82.1-35.5Q83.88-35.5 85.45-34.86 87.03-34.23 88.2-33.03 89.37-31.84 90.04-30.16 90.72-28.49 90.72-26.39L90.72-26.39Q90.72-24.32 90.09-22.22 89.47-20.12 88.46-18.09 87.44-16.06 86.14-14.16 84.83-12.26 83.46-10.57L83.46-10.57Q80.27-6.64 76.21-3L76.21-3 90.96-3 90.96 0 71.26 0 71.26-2.49Q75.82-6.25 79.41-10.28L79.41-10.28Q80.95-12.01 82.41-13.96 83.88-15.92 85.03-17.98 86.17-20.04 86.87-22.18 87.57-24.32 87.57-26.39L87.57-26.39Q87.57-27.93 87.1-29.08 86.64-30.22 85.86-30.98 85.08-31.74 84.06-32.12 83.05-32.5 81.95-32.5L81.95-32.5ZM115.66-6.05L112.66-6.05 112.66 0 109.51 0 109.51-6.05 95.45-6.05 95.45-7.54 111-35.01 112.66-35.01 112.66-9.06 115.66-9.06 115.66-6.05ZM109.51-9.06L109.51-26.39 99.87-9.06 109.51-9.06Z" opacity="1" transform="matrix(1,0,0,1,0,0)" fill="#0cb60e" class="wordmark-text-0" data-fill-palette-color="primary" id="text-0"></path></svg></g></svg></g></svg></g></svg></g><g transform="matrix(1,0,0,1,85.3031795953087,0)"><svg viewBox="0 0 224.91364080938257 224.91364080938257" height="224.91364080938257" width="224.91364080938257"><g><svg></svg></g><g id="icon-0"><svg viewBox="0 0 224.91364080938257 224.91364080938257" height="224.91364080938257" width="224.91364080938257"><g><path d="M0 112.457c0-62.108 50.349-112.457 112.457-112.457 62.108 0 112.457 50.349 112.457 112.457 0 62.108-50.349 112.457-112.457 112.457-62.108 0-112.457-50.349-112.457-112.457zM112.457 213.575c55.846 0 101.118-45.272 101.118-101.118 0-55.846-45.272-101.118-101.118-101.119-55.846 0-101.118 45.272-101.119 101.119 0 55.846 45.272 101.118 101.119 101.118z" data-fill-palette-color="accent" fill="#13472e" stroke="transparent"></path><ellipse rx="111.33225220064438" ry="111.33225220064438" cx="112.45682040469129" cy="112.45682040469129" fill="#13472e" stroke="transparent" stroke-width="0" fill-opacity="1" data-fill-palette-color="accent"></ellipse></g><g transform="matrix(1,0,0,1,64.0144987930087,49.59725549765532)"><svg viewBox="0 0 96.88464322336517 125.71912981407193" height="125.71912981407193" width="96.88464322336517"><g><svg xmlns="http://www.w3.org/2000/svg" xmlns:xlink="http://www.w3.org/1999/xlink" version="1.1" x="0" y="0" viewBox="15.1941176870281 6.289 63.6508823129719 82.59444706666264" enable-background="new 0 0 95 95" xml:space="preserve" height="125.71912981407193" width="96.88464322336517" class="icon-cg-0" data-fill-palette-color="quaternary" id="cg-0"><g fill="#ffffff" data-fill-palette-color="quaternary"><path d="M57.986 40.146c0 0 4.195 1.369 9.17-6.148 4.974-7.519 11.689-21.447 11.689-21.447l-0.441-0.276L65.594 32.12c-0.277 0.446-0.902 0.557-1.396 0.247-0.493-0.307-0.669-0.916-0.39-1.361l11.896-20.418-0.397-0.248L62.188 29.995c-0.275 0.445-0.9 0.556-1.396 0.248-0.492-0.308-0.668-0.919-0.392-1.363L72.298 8.463 71.96 8.252 58.846 27.908c-0.277 0.445-0.904 0.555-1.396 0.248-0.494-0.31-0.671-0.919-0.392-1.363L69.258 6.566l-0.441-0.277c0 0-9.563 12.154-14.131 19.924-4.569 7.771-1.496 10.939-1.496 10.939l0.291 0.181L22.605 83.629l0.005 0.005c-0.73 1.3 0.613 3.541 2.106 4.474 1.495 0.935 4.098 1.154 4.945-0.071l0.006 0.003 0.055-0.088c0.002-0.003 0.003-0.006 0.005-0.008 0.001-0.002 0.002-0.004 0.003-0.006l27.963-47.973L57.986 40.146z" fill="#ffffff" data-fill-palette-color="quaternary"></path><path d="M42.197 51.424l0.215-0.141 0.287 0.455 3.756-5.635-10.558-14.73-0.009 0.006L19.042 6.307C4.65 6.66 35.265 51.313 35.265 51.313L42.197 51.424z" fill="#ffffff" data-fill-palette-color="quaternary"></path><path d="M72.833 82.908L51.305 52.869l-3.798 6.514 17.856 28.393c0 0.002 0.003 0.004 0.004 0.007 0.002 0.002 0.003 0.004 0.005 0.007l0.063 0.093 0.004-0.004c0.951 1.283 3.73 0.953 5.295-0.101 1.565-1.053 2.922-3.498 2.094-4.862L72.833 82.908z" fill="#ffffff" data-fill-palette-color="quaternary"></path></g></svg></g></svg></g></svg></g></svg></g><g></g></svg></g><defs></defs></svg><rect width="238.4659171695296" height="247.2" fill="none" stroke="none" visibility="hidden"></rect></g></svg></g></svg>